<mxfile host="app.diagrams.net" modified="2023-02-11T16:12:42.592Z" agent="5.0 (Macintosh; Intel Mac OS X 10_12_6) AppleWebKit/537.36 (KHTML, like Gecko) Chrome/103.0.0.0 Safari/537.36" etag="05ynE8C2wTSfe8EWyjdm" version="20.8.20" type="github">
  <diagram name="Page-1" id="c7S7PHu0UhxQzCW4UXiq">
    <mxGraphModel dx="794" dy="489" grid="1" gridSize="10" guides="1" tooltips="1" connect="1" arrows="1" fold="1" page="1" pageScale="1" pageWidth="850" pageHeight="1100" math="0" shadow="0">
      <root>
        <mxCell id="0" />
        <mxCell id="1" parent="0" />
        <mxCell id="hdpYh6DBLOswqB0Ypegx-1" value="USB-C" style="rounded=1;whiteSpace=wrap;html=1;" parent="1" vertex="1">
          <mxGeometry x="240" y="90" width="120" height="60" as="geometry" />
        </mxCell>
        <mxCell id="hdpYh6DBLOswqB0Ypegx-2" value="" style="endArrow=classic;html=1;rounded=0;startArrow=classic;startFill=1;" parent="1" edge="1">
          <mxGeometry width="50" height="50" relative="1" as="geometry">
            <mxPoint x="160" y="140" as="sourcePoint" />
            <mxPoint x="240" y="140" as="targetPoint" />
          </mxGeometry>
        </mxCell>
        <mxCell id="hdpYh6DBLOswqB0Ypegx-3" value="UART" style="edgeLabel;html=1;align=center;verticalAlign=middle;resizable=0;points=[];" parent="hdpYh6DBLOswqB0Ypegx-2" vertex="1" connectable="0">
          <mxGeometry x="0.1" y="-1" relative="1" as="geometry">
            <mxPoint as="offset" />
          </mxGeometry>
        </mxCell>
        <mxCell id="hdpYh6DBLOswqB0Ypegx-4" value="" style="endArrow=classic;html=1;rounded=0;" parent="1" edge="1">
          <mxGeometry width="50" height="50" relative="1" as="geometry">
            <mxPoint x="160" y="119.84" as="sourcePoint" />
            <mxPoint x="240" y="119.84" as="targetPoint" />
          </mxGeometry>
        </mxCell>
        <mxCell id="hdpYh6DBLOswqB0Ypegx-5" value="GND" style="edgeLabel;html=1;align=center;verticalAlign=middle;resizable=0;points=[];" parent="hdpYh6DBLOswqB0Ypegx-4" vertex="1" connectable="0">
          <mxGeometry x="0.1" y="-1" relative="1" as="geometry">
            <mxPoint as="offset" />
          </mxGeometry>
        </mxCell>
        <mxCell id="hdpYh6DBLOswqB0Ypegx-6" value="" style="endArrow=classic;html=1;rounded=0;" parent="1" edge="1">
          <mxGeometry width="50" height="50" relative="1" as="geometry">
            <mxPoint x="160" y="100" as="sourcePoint" />
            <mxPoint x="240" y="100" as="targetPoint" />
          </mxGeometry>
        </mxCell>
        <mxCell id="hdpYh6DBLOswqB0Ypegx-7" value="5VDC" style="edgeLabel;html=1;align=center;verticalAlign=middle;resizable=0;points=[];" parent="hdpYh6DBLOswqB0Ypegx-6" vertex="1" connectable="0">
          <mxGeometry x="0.1" y="-1" relative="1" as="geometry">
            <mxPoint as="offset" />
          </mxGeometry>
        </mxCell>
        <mxCell id="hdpYh6DBLOswqB0Ypegx-9" value="Light Sensor" style="rounded=1;whiteSpace=wrap;html=1;glass=0;shadow=0;" parent="1" vertex="1">
          <mxGeometry x="240" y="170" width="120" height="60" as="geometry" />
        </mxCell>
        <mxCell id="hdpYh6DBLOswqB0Ypegx-10" value="SD Card" style="rounded=1;whiteSpace=wrap;html=1;" parent="1" vertex="1">
          <mxGeometry x="380" y="90" width="120" height="60" as="geometry" />
        </mxCell>
        <mxCell id="hdpYh6DBLOswqB0Ypegx-11" value="Ext. Interface" style="rounded=1;whiteSpace=wrap;html=1;" parent="1" vertex="1">
          <mxGeometry x="380" y="170" width="120" height="60" as="geometry" />
        </mxCell>
        <mxCell id="hdpYh6DBLOswqB0Ypegx-12" value="Microphone" style="rounded=1;whiteSpace=wrap;html=1;" parent="1" vertex="1">
          <mxGeometry x="520" y="90" width="120" height="60" as="geometry" />
        </mxCell>
        <mxCell id="hdpYh6DBLOswqB0Ypegx-13" value="IMU" style="rounded=1;whiteSpace=wrap;html=1;" parent="1" vertex="1">
          <mxGeometry x="520" y="170" width="120" height="60" as="geometry" />
        </mxCell>
        <mxCell id="hdpYh6DBLOswqB0Ypegx-14" value="Battery" style="rounded=1;whiteSpace=wrap;html=1;" parent="1" vertex="1">
          <mxGeometry x="240" y="250" width="120" height="60" as="geometry" />
        </mxCell>
        <mxCell id="hdpYh6DBLOswqB0Ypegx-15" value="BLE" style="rounded=1;whiteSpace=wrap;html=1;" parent="1" vertex="1">
          <mxGeometry x="380" y="250" width="120" height="60" as="geometry" />
        </mxCell>
        <mxCell id="hdpYh6DBLOswqB0Ypegx-16" value="Debug" style="rounded=1;whiteSpace=wrap;html=1;" parent="1" vertex="1">
          <mxGeometry x="520" y="250" width="120" height="60" as="geometry" />
        </mxCell>
        <mxCell id="hdpYh6DBLOswqB0Ypegx-17" value="Buzzer" style="rounded=1;whiteSpace=wrap;html=1;" parent="1" vertex="1">
          <mxGeometry x="240" y="330" width="120" height="60" as="geometry" />
        </mxCell>
        <mxCell id="hdpYh6DBLOswqB0Ypegx-18" value="EEPROM" style="rounded=1;whiteSpace=wrap;html=1;" parent="1" vertex="1">
          <mxGeometry x="380" y="330" width="120" height="60" as="geometry" />
        </mxCell>
        <mxCell id="G_PPI8zOTdHrNY6b9ppO-2" value="PWR Consumption" style="rounded=1;whiteSpace=wrap;html=1;" vertex="1" parent="1">
          <mxGeometry x="520" y="330" width="120" height="60" as="geometry" />
        </mxCell>
        <mxCell id="G_PPI8zOTdHrNY6b9ppO-3" value="MCU" style="rounded=1;whiteSpace=wrap;html=1;" vertex="1" parent="1">
          <mxGeometry x="240" y="410" width="120" height="60" as="geometry" />
        </mxCell>
        <mxCell id="G_PPI8zOTdHrNY6b9ppO-4" value="PWR (button)" style="rounded=1;whiteSpace=wrap;html=1;" vertex="1" parent="1">
          <mxGeometry x="380" y="410" width="120" height="60" as="geometry" />
        </mxCell>
        <mxCell id="G_PPI8zOTdHrNY6b9ppO-5" value="RESET (button)" style="rounded=1;whiteSpace=wrap;html=1;" vertex="1" parent="1">
          <mxGeometry x="520" y="410" width="120" height="60" as="geometry" />
        </mxCell>
        <mxCell id="G_PPI8zOTdHrNY6b9ppO-6" value="Aux (button)" style="rounded=1;whiteSpace=wrap;html=1;" vertex="1" parent="1">
          <mxGeometry x="240" y="490" width="120" height="60" as="geometry" />
        </mxCell>
        <mxCell id="G_PPI8zOTdHrNY6b9ppO-7" value="LEDs" style="rounded=1;whiteSpace=wrap;html=1;" vertex="1" parent="1">
          <mxGeometry x="380" y="490" width="120" height="60" as="geometry" />
        </mxCell>
        <mxCell id="G_PPI8zOTdHrNY6b9ppO-8" value="ON/OFF" style="ellipse;whiteSpace=wrap;html=1;aspect=fixed;" vertex="1" parent="1">
          <mxGeometry x="620" y="520" width="80" height="80" as="geometry" />
        </mxCell>
        <mxCell id="G_PPI8zOTdHrNY6b9ppO-9" value="RESET" style="ellipse;whiteSpace=wrap;html=1;aspect=fixed;" vertex="1" parent="1">
          <mxGeometry x="710" y="520" width="80" height="80" as="geometry" />
        </mxCell>
        <mxCell id="G_PPI8zOTdHrNY6b9ppO-10" value="BUTTON" style="ellipse;whiteSpace=wrap;html=1;aspect=fixed;" vertex="1" parent="1">
          <mxGeometry x="620" y="610" width="80" height="80" as="geometry" />
        </mxCell>
      </root>
    </mxGraphModel>
  </diagram>
</mxfile>
